<svg xmlns="http://www.w3.org/2000/svg" id="Ebene_1" data-name="Ebene 1" viewBox="0 0 120 120"><defs><style>      .cls-1 {        fill: #0024be;      }      .cls-2 {        fill: #597fde;      }      .cls-3 {        fill: #fff;      }    </style></defs><rect class="cls-1" x="2.22" y="2.17" width="115.77" height="115.77" rx="57.88" ry="57.88"></rect><g><polygon class="cls-2" points="21.6 43.43 39.29 43.43 40.23 61.32 35.15 62.26 40.23 72.99 50.96 82.21 55.86 83.72 57.74 80.7 76.38 80.52 76.38 96.7 65.83 98.96 51.72 96.52 39.48 89.55 28.75 78.63 22.16 64.14 20.28 57.74 21.6 43.43"></polygon><g><g><path class="cls-3" d="M52.27,58.72v6.07h8.88c.82,0,1.36,2.09-.03,2.4-3.21-.16-6.83.33-9.99.04-.78-.07-1.19-.33-1.29-1.14-.21-1.8-.21-6.86,0-8.66.05-.4.44-1.13.84-1.13h8.88v-6.07h-8.88c-.82,0-1.36-2.09.03-2.4,3.21.16,6.83-.33,9.99-.04.78.07,1.19.33,1.29,1.14.21,1.8.21,6.86,0,8.66-.05.4-.44,1.13-.84,1.13h-8.88Z"></path><path class="cls-3" d="M66.84,56.29h7.28v-7.66c0-.79,2.25-1.58,2.44.45l-.02,17.15c-.24,1.56-2.42.99-2.42.16v-7.66h-8.88c-.4,0-.79-.74-.84-1.13-.32-2.71.23-6.02.01-8.8.24-1.56,2.42-.99,2.42-.16v7.66Z"></path></g><path class="cls-3" d="M58,22.33c.84-.18,1.46.26,1.56,1.1.16,1.4.2,6.24-.01,7.58s-2.24,1.4-2.42-.14c-.16-1.41-.2-6.23.01-7.58.07-.45.41-.87.86-.97Z"></path><path class="cls-3" d="M88.35,59.97l7.85-.02c1.34.21,1.34,2.2,0,2.41-1.2.19-6.53.19-7.72,0-1.28-.2-1.36-2.03-.13-2.39Z"></path><path class="cls-3" d="M40.39,27.66l3.92,6.78c.35,1.33-1.04,2.18-2.06,1.26l-3.87-6.71c-.43-1.31.98-2.12,2.01-1.32Z"></path><path class="cls-3" d="M91.83,79.1c.88.97-.09,2.4-1.32,2.01l-6.71-3.87c-.95-.91-.03-2.55,1.26-2.06l6.78,3.92Z"></path><path class="cls-3" d="M91.84,41.46c.46.46.4,1.34-.07,1.78l-6.61,3.82c-1.29.6-2.37-1.05-1.37-2.01l6.61-3.82c.37-.24,1.15-.05,1.43.23Z"></path><path class="cls-3" d="M58,22.33c-.45.1-.79.52-.86.97-.21,1.35-.18,6.17-.01,7.58.18,1.54,2.21,1.48,2.42.14s.18-6.18.01-7.58c-.1-.84-.72-1.29-1.56-1.1ZM40.39,27.66c-1.02-.79-2.43.01-2.01,1.32l3.87,6.71c1.03.93,2.41.07,2.06-1.26l-3.92-6.78ZM78.03,27.65c-.46-.46-1.34-.4-1.78.07l-3.87,6.71c-.35,1.33,1.04,2.18,2.06,1.26l3.82-6.61c.24-.37.05-1.15-.23-1.43ZM91.84,41.46c-.28-.28-1.07-.47-1.43-.23l-6.61,3.82c-1.01.96.07,2.62,1.37,2.01l6.61-3.82c.47-.45.53-1.32.07-1.78ZM52.27,58.72h8.88c.4,0,.79-.74.84-1.13.21-1.8.21-6.86,0-8.66-.1-.81-.5-1.07-1.29-1.14-3.16-.29-6.78.2-9.99.04-1.39.31-.85,2.4-.03,2.4h8.88v6.07h-8.88c-.4,0-.79.74-.84,1.13-.21,1.8-.21,6.86,0,8.66.1.81.5,1.07,1.29,1.14,3.16.29,6.78-.2,9.99-.04,1.39-.31.85-2.4.03-2.4h-8.88v-6.07ZM66.84,56.29v-7.66c0-.83-2.18-1.4-2.42.16.22,2.78-.33,6.09-.01,8.8.05.4.44,1.13.84,1.13h8.88v7.66c0,.83,2.18,1.4,2.42-.16l.02-17.15c-.18-2.03-2.44-1.23-2.44-.45v7.66h-7.28ZM88.35,59.97c-1.23.36-1.15,2.19.13,2.39,1.19.19,6.53.19,7.72,0,1.34-.21,1.34-2.2,0-2.41l-7.85.02ZM91.83,79.1l-6.78-3.92c-1.29-.49-2.21,1.15-1.26,2.06l6.71,3.87c1.23.39,2.2-1.04,1.32-2.01Z"></path><path class="cls-3" d="M78.03,27.65c.28.28.47,1.07.23,1.43l-3.82,6.61c-1.02.93-2.41.07-2.06-1.26l3.87-6.71c.45-.47,1.32-.53,1.78-.07Z"></path><g><path class="cls-3" d="M19.5,49.77l.16-.37c0-1.36.13-2.74.32-4.09.13-.89.3-3.24,1.18-3.52l18.91-.08c.7-.03,1.25.44,1.29,1.14-.43,6.26.56,13.26,0,19.43-.04.43-.34,1.28-.84,1.28h-3.57c2.87,8.86,10.12,16.09,18.97,18.97v-2.35c0-.4.74-.79,1.13-.84,3.83-.45,8.52.33,12.44.01,1.56.24.99,2.42.16,2.42h-11.31v2.81c0,.52-.92.88-1.42.83-1-.1-3.29-1.05-4.29-1.48-8.17-3.51-15.12-10.76-17.92-19.26-.26-.79-.9-2.25-.48-2.98.09-.15.55-.55.67-.55h4.02v-17h-16.16l-.2.25c-.4,2.89-.61,5.79-.7,8.71-.52,1.09-1.78.96-2.36,0v-3.34Z"></path><path class="cls-3" d="M65.17,100c-22.69-1.3-41.18-16.92-44.87-39.58-.15-.9-.67-3.01-.14-3.68.59-.75,1.74-.49,2.07.38,2.39,21.71,18.38,37.53,39.99,40.13,4.51.54,8.66.21,13.11-.59v-14.87c-.46-.04-.98.06-1.43,0-1.34-.21-1.4-2.24.14-2.42,1-.12,3.57-.33,3.71,1l-.06,17.68c-.23.63-.74.68-1.3.83-2.4.65-5.45,1.01-7.89,1.14h-3.34Z"></path></g></g></g></svg>