<svg xmlns="http://www.w3.org/2000/svg" id="Ebene_1" data-name="Ebene 1" viewBox="0 0 500 500"><defs><style>      .cls-1 {        fill: #0024be;      }      .cls-2 {        fill: #597fde;      }      .cls-3 {        fill: #fff;      }    </style></defs><circle class="cls-1" cx="250" cy="250" r="250"></circle><polygon class="cls-2" points="360.38 421.64 152.26 421.64 152.26 137.43 360.38 137.43 360.38 274.56 306.8 333.12 288.16 376.67 329.95 360.34 360.38 333.12 360.38 421.64"></polygon><path class="cls-3" d="M191.14,175.22h119.78v10.89h-119.78v-10.89Z"></path><path class="cls-3" d="M321.81,175.22h21.78v10.89h-21.78v-10.89Z"></path><path class="cls-3" d="M169.36,197h174.23v10.89h-174.23v-10.89Z"></path><path class="cls-3" d="M169.36,218.78h174.23v10.89h-174.23v-10.89Z"></path><path class="cls-3" d="M169.36,240.56h174.23v10.89h-174.23v-10.89Z"></path><path class="cls-3" d="M169.36,262.34h174.23v10.89h-174.23v-10.89Z"></path><path class="cls-3" d="M169.36,371.23h103.45v10.89h-103.45v-10.89Z"></path><path class="cls-3" d="M169.36,349.45h103.45v10.89h-103.45v-10.89Z"></path><path class="cls-3" d="M169.36,327.67h103.45v10.89h-103.45v-10.89Z"></path><path class="cls-3" d="M427.8,213.33c-6.55-.02-12.84,2.59-17.46,7.24l-44.96,44.96v-128.42c0-3.01-2.44-5.44-5.44-5.44h-27.22v-38.11c0-3.01-2.44-5.44-5.44-5.44H120.36c-3.01,0-5.44,2.44-5.44,5.44v283.13c0,3.01,2.44,5.44,5.44,5.44h27.22v38.11c0,3.01,2.44,5.44,5.44,5.44h206.9c3.01,0,5.44-2.44,5.44-5.44v-84.86l79.88-79.88c9.64-9.65,9.64-25.28,0-34.93-4.63-4.63-10.91-7.23-17.46-7.23h0ZM307.61,342.94l15.25,15.25-24.43,9.16,9.18-24.4ZM332.7,352.64l-19.52-19.52,63.08-63.08,19.52,19.52-63.08,63.08ZM383.96,262.34l8.64-8.64,19.52,19.52-8.64,8.64-19.52-19.52ZM147.58,137.11v234.12h-21.78V98.99h196.01v32.67h-168.79c-3.01,0-5.44,2.44-5.44,5.44ZM354.48,414.79h-196.01V142.55h196.01v133.86l-52.85,52.85c-.55.55-.98,1.21-1.25,1.94l-16.33,43.56c-1.06,2.82.37,5.95,3.19,7.01.61.23,1.26.35,1.91.35.65,0,1.3-.12,1.92-.34l43.56-16.33c.72-.28,1.38-.71,1.93-1.25l17.93-17.93v68.53ZM437.56,247.79l-17.74,17.73-19.52-19.52,17.74-17.73c5.48-5.31,14.22-5.17,19.52.31,5.19,5.35,5.19,13.86,0,19.22h0Z"></path></svg>